# Blender 3.5.1
# www.blender.org
mtllib arm.mtl
o Circle
v 0.500000 0.500000 -0.250000
v 0.500000 -0.500000 -0.250000
v 0.500000 0.500000 0.250000
v 0.500000 -0.500000 0.250000
v -0.500000 -0.500000 0.250000
v -0.500000 0.500000 0.250000
v -0.500000 -0.500000 -0.250000
v -0.500000 0.500000 -0.250000
vn -1.0000 -0.0000 -0.0000
vn -0.0000 1.0000 -0.0000
vn -0.0000 -1.0000 -0.0000
vn -0.0000 -0.0000 1.0000
vn 1.0000 -0.0000 -0.0000
vn -0.0000 -0.0000 -1.0000
vt 0.000000 0.000000
vt 0.000000 0.000000
vt 0.000000 0.000000
vt 0.000000 0.000000
vt 0.000000 0.000000
vt 0.000000 0.000000
vt 0.000000 0.000000
vt 0.000000 0.000000
s 0
f 8/8/1 5/5/1 6/6/1
f 1/1/2 6/6/2 3/3/2
f 4/4/3 7/7/3 2/2/3
f 3/3/4 5/5/4 4/4/4
f 4/4/5 1/1/5 3/3/5
f 2/2/6 8/8/6 1/1/6
f 8/8/1 7/7/1 5/5/1
f 1/1/2 8/8/2 6/6/2
f 4/4/3 5/5/3 7/7/3
f 3/3/4 6/6/4 5/5/4
f 4/4/5 2/2/5 1/1/5
f 2/2/6 7/7/6 8/8/6
