# Blender 3.5.1
# www.blender.org
mtllib cylinder.mtl
o Circle.001
v 0.500000 -0.200000 -0.000000
v 0.500000 -0.196155 0.039020
v 0.500000 -0.184775 0.076535
v 0.500000 -0.166295 0.111115
v 0.500000 -0.141420 0.141420
v 0.500000 -0.111115 0.166295
v 0.500000 -0.076535 0.184775
v 0.500000 -0.039020 0.196155
v 0.500000 0.000000 0.200000
v 0.500000 0.039020 0.196155
v 0.500000 0.076535 0.184775
v 0.500000 0.111115 0.166295
v 0.500000 0.141420 0.141420
v 0.500000 0.166295 0.111115
v 0.500000 0.184775 0.076535
v 0.500000 0.196155 0.039020
v 0.500000 0.200000 0.000000
v 0.500000 0.196155 -0.039020
v 0.500000 0.184775 -0.076535
v 0.500000 0.166295 -0.111115
v 0.500000 0.141420 -0.141420
v 0.500000 0.111115 -0.166295
v 0.500000 0.076535 -0.184775
v 0.500000 0.039020 -0.196155
v 0.500000 0.000000 -0.200000
v 0.500000 -0.039020 -0.196155
v 0.500000 -0.076535 -0.184775
v 0.500000 -0.111115 -0.166295
v 0.500000 -0.141420 -0.141420
v 0.500000 -0.166295 -0.111115
v 0.500000 -0.184775 -0.076535
v 0.500000 -0.196155 -0.039020
v -0.500000 -0.200000 -0.000000
v -0.500000 -0.196155 0.039020
v -0.500000 -0.184775 0.076535
v -0.500000 -0.166295 0.111115
v -0.500000 -0.141420 0.141420
v -0.500000 -0.111115 0.166295
v -0.500000 -0.076535 0.184775
v -0.500000 -0.039020 0.196155
v -0.500000 -0.000000 0.200000
v -0.500000 0.039020 0.196155
v -0.500000 0.076535 0.184775
v -0.500000 0.111115 0.166295
v -0.500000 0.141420 0.141420
v -0.500000 0.166295 0.111115
v -0.500000 0.184775 0.076535
v -0.500000 0.196155 0.039020
v -0.500000 0.200000 0.000000
v -0.500000 0.196155 -0.039020
v -0.500000 0.184775 -0.076535
v -0.500000 0.166295 -0.111115
v -0.500000 0.141420 -0.141420
v -0.500000 0.111115 -0.166295
v -0.500000 0.076535 -0.184775
v -0.500000 0.039020 -0.196155
v -0.500000 -0.000000 -0.200000
v -0.500000 -0.039020 -0.196155
v -0.500000 -0.076535 -0.184775
v -0.500000 -0.111115 -0.166295
v -0.500000 -0.141420 -0.141420
v -0.500000 -0.166295 -0.111115
v -0.500000 -0.184775 -0.076535
v -0.500000 -0.196155 -0.039020
vn 1.0000 -0.0000 -0.0000
vn -1.0000 -0.0000 -0.0000
vn -0.0000 0.4713 0.8820
vn -0.0000 -0.0981 -0.9952
vn -0.0000 0.6345 0.7730
vn -0.0000 -0.2903 -0.9569
vn -0.0000 0.7730 0.6345
vn -0.0000 -0.4713 -0.8820
vn -0.0000 0.8820 0.4713
vn -0.0000 -0.9952 0.0981
vn -0.0000 -0.6345 -0.7730
vn -0.0000 0.9569 0.2903
vn -0.0000 -0.9569 0.2903
vn -0.0000 -0.7730 -0.6345
vn -0.0000 0.9952 0.0981
vn -0.0000 -0.8820 0.4713
vn -0.0000 -0.8820 -0.4713
vn -0.0000 0.9952 -0.0981
vn -0.0000 -0.7730 0.6345
vn -0.0000 -0.9569 -0.2903
vn -0.0000 0.9569 -0.2903
vn -0.0000 -0.6345 0.7730
vn -0.0000 -0.9952 -0.0981
vn -0.0000 0.8820 -0.4713
vn -0.0000 -0.4713 0.8820
vn -0.0000 0.7730 -0.6345
vn -0.0000 -0.2903 0.9569
vn -0.0000 0.6345 -0.7730
vn -0.0000 -0.0981 0.9952
vn -0.0000 0.4713 -0.8820
vn -0.0000 0.0981 0.9952
vn -0.0000 0.2903 -0.9569
vn -0.0000 0.2903 0.9569
vn -0.0000 0.0981 -0.9952
vt 0.000000 0.000000
vt 0.000000 0.000000
vt 0.000000 0.000000
vt 0.000000 0.000000
vt 0.000000 0.000000
vt 0.000000 0.000000
vt 0.000000 0.000000
vt 0.000000 0.000000
vt 0.000000 0.000000
vt 0.000000 0.000000
vt 0.000000 0.000000
vt 0.000000 0.000000
vt 0.000000 0.000000
vt 0.000000 0.000000
vt 0.000000 0.000000
vt 0.000000 0.000000
vt 0.000000 0.000000
vt 0.000000 0.000000
vt 0.000000 0.000000
vt 0.000000 0.000000
vt 0.000000 0.000000
vt 0.000000 0.000000
vt 0.000000 0.000000
vt 0.000000 0.000000
vt 0.000000 0.000000
vt 0.000000 0.000000
vt 0.000000 0.000000
vt 0.000000 0.000000
vt 0.000000 0.000000
vt 0.000000 0.000000
vt 0.000000 0.000000
vt 0.000000 0.000000
vt 0.000000 0.000000
vt 0.000000 0.000000
vt 0.000000 0.000000
vt 0.000000 0.000000
vt 0.000000 0.000000
vt 0.000000 0.000000
vt 0.000000 0.000000
vt 0.000000 0.000000
vt 0.000000 0.000000
vt 0.000000 0.000000
vt 0.000000 0.000000
vt 0.000000 0.000000
vt 0.000000 0.000000
vt 0.000000 0.000000
vt 0.000000 0.000000
vt 0.000000 0.000000
vt 0.000000 0.000000
vt 0.000000 0.000000
vt 0.000000 0.000000
vt 0.000000 0.000000
vt 0.000000 0.000000
vt 0.000000 0.000000
vt 0.000000 0.000000
vt 0.000000 0.000000
vt 0.000000 0.000000
vt 0.000000 0.000000
vt 0.000000 0.000000
vt 0.000000 0.000000
vt 0.000000 0.000000
vt 0.000000 0.000000
vt 0.000000 0.000000
vt 0.000000 0.000000
s 0
f 19/19/1 11/11/1 3/3/1
f 49/49/2 57/57/2 33/33/2
f 12/12/3 43/43/3 11/11/3
f 26/26/4 57/57/4 25/25/4
f 13/13/5 44/44/5 12/12/5
f 27/27/6 58/58/6 26/26/6
f 14/14/7 45/45/7 13/13/7
f 28/28/8 59/59/8 27/27/8
f 15/15/9 46/46/9 14/14/9
f 2/2/10 33/33/10 1/1/10
f 29/29/11 60/60/11 28/28/11
f 16/16/12 47/47/12 15/15/12
f 3/3/13 34/34/13 2/2/13
f 30/30/14 61/61/14 29/29/14
f 17/17/15 48/48/15 16/16/15
f 4/4/16 35/35/16 3/3/16
f 31/31/17 62/62/17 30/30/17
f 18/18/18 49/49/18 17/17/18
f 5/5/19 36/36/19 4/4/19
f 32/32/20 63/63/20 31/31/20
f 19/19/21 50/50/21 18/18/21
f 6/6/22 37/37/22 5/5/22
f 1/1/23 64/64/23 32/32/23
f 20/20/24 51/51/24 19/19/24
f 7/7/25 38/38/25 6/6/25
f 21/21/26 52/52/26 20/20/26
f 8/8/27 39/39/27 7/7/27
f 22/22/28 53/53/28 21/21/28
f 9/9/29 40/40/29 8/8/29
f 23/23/30 54/54/30 22/22/30
f 10/10/31 41/41/31 9/9/31
f 24/24/32 55/55/32 23/23/32
f 11/11/33 42/42/33 10/10/33
f 25/25/34 56/56/34 24/24/34
f 3/3/1 2/2/1 1/1/1
f 1/1/1 32/32/1 3/3/1
f 32/32/1 31/31/1 3/3/1
f 31/31/1 30/30/1 29/29/1
f 29/29/1 28/28/1 27/27/1
f 27/27/1 26/26/1 25/25/1
f 25/25/1 24/24/1 27/27/1
f 24/24/1 23/23/1 27/27/1
f 23/23/1 22/22/1 21/21/1
f 21/21/1 20/20/1 19/19/1
f 19/19/1 18/18/1 15/15/1
f 18/18/1 17/17/1 15/15/1
f 17/17/1 16/16/1 15/15/1
f 15/15/1 14/14/1 13/13/1
f 13/13/1 12/12/1 11/11/1
f 11/11/1 10/10/1 7/7/1
f 10/10/1 9/9/1 7/7/1
f 9/9/1 8/8/1 7/7/1
f 7/7/1 6/6/1 5/5/1
f 5/5/1 4/4/1 3/3/1
f 31/31/1 29/29/1 3/3/1
f 29/29/1 27/27/1 3/3/1
f 23/23/1 21/21/1 27/27/1
f 21/21/1 19/19/1 27/27/1
f 15/15/1 13/13/1 19/19/1
f 13/13/1 11/11/1 19/19/1
f 7/7/1 5/5/1 11/11/1
f 5/5/1 3/3/1 11/11/1
f 3/3/1 27/27/1 19/19/1
f 33/33/2 34/34/2 37/37/2
f 34/34/2 35/35/2 37/37/2
f 35/35/2 36/36/2 37/37/2
f 37/37/2 38/38/2 39/39/2
f 39/39/2 40/40/2 37/37/2
f 40/40/2 41/41/2 37/37/2
f 41/41/2 42/42/2 45/45/2
f 42/42/2 43/43/2 45/45/2
f 43/43/2 44/44/2 45/45/2
f 45/45/2 46/46/2 47/47/2
f 47/47/2 48/48/2 45/45/2
f 48/48/2 49/49/2 45/45/2
f 49/49/2 50/50/2 53/53/2
f 50/50/2 51/51/2 53/53/2
f 51/51/2 52/52/2 53/53/2
f 53/53/2 54/54/2 55/55/2
f 55/55/2 56/56/2 53/53/2
f 56/56/2 57/57/2 53/53/2
f 57/57/2 58/58/2 61/61/2
f 58/58/2 59/59/2 61/61/2
f 59/59/2 60/60/2 61/61/2
f 61/61/2 62/62/2 63/63/2
f 63/63/2 64/64/2 61/61/2
f 64/64/2 33/33/2 61/61/2
f 33/33/2 37/37/2 41/41/2
f 41/41/2 45/45/2 49/49/2
f 49/49/2 53/53/2 57/57/2
f 57/57/2 61/61/2 33/33/2
f 33/33/2 41/41/2 49/49/2
f 12/12/3 44/44/3 43/43/3
f 26/26/4 58/58/4 57/57/4
f 13/13/5 45/45/5 44/44/5
f 27/27/6 59/59/6 58/58/6
f 14/14/7 46/46/7 45/45/7
f 28/28/8 60/60/8 59/59/8
f 15/15/9 47/47/9 46/46/9
f 2/2/10 34/34/10 33/33/10
f 29/29/11 61/61/11 60/60/11
f 16/16/12 48/48/12 47/47/12
f 3/3/13 35/35/13 34/34/13
f 30/30/14 62/62/14 61/61/14
f 17/17/15 49/49/15 48/48/15
f 4/4/16 36/36/16 35/35/16
f 31/31/17 63/63/17 62/62/17
f 18/18/18 50/50/18 49/49/18
f 5/5/19 37/37/19 36/36/19
f 32/32/20 64/64/20 63/63/20
f 19/19/21 51/51/21 50/50/21
f 6/6/22 38/38/22 37/37/22
f 1/1/23 33/33/23 64/64/23
f 20/20/24 52/52/24 51/51/24
f 7/7/25 39/39/25 38/38/25
f 21/21/26 53/53/26 52/52/26
f 8/8/27 40/40/27 39/39/27
f 22/22/28 54/54/28 53/53/28
f 9/9/29 41/41/29 40/40/29
f 23/23/30 55/55/30 54/54/30
f 10/10/31 42/42/31 41/41/31
f 24/24/32 56/56/32 55/55/32
f 11/11/33 43/43/33 42/42/33
f 25/25/34 57/57/34 56/56/34
